<svg width="256" height="256" viewBox="0 0 256 256" fill="none" xmlns="http://www.w3.org/2000/svg">
<g opacity="0.15">
<path d="M128 245.253C60.9382 245.253 6.57396 212.703 6.57396 172.549C6.57396 132.396 60.9382 99.8452 128 99.8452C195.062 99.8452 249.426 132.396 249.426 172.549C249.426 212.703 195.062 245.253 128 245.253Z" fill="#F5F5F5"/>
<path d="M62.0391 162.34C50.2108 162.34 40.6221 156.375 40.6221 149.018C40.6221 141.66 50.2108 135.696 62.0391 135.696C73.8674 135.696 83.4561 141.66 83.4561 149.018C83.4561 156.375 73.8674 162.34 62.0391 162.34Z" fill="#E0E0E0"/>
<path d="M120.367 200.494C100.189 200.494 83.8307 190.857 83.8307 178.97C83.8307 167.082 100.189 157.445 120.367 157.445C140.545 157.445 156.903 167.082 156.903 178.97C156.903 190.857 140.545 200.494 120.367 200.494Z" fill="#E0E0E0"/>
<path d="M56.5045 220.974C48.0242 220.974 41.1496 216.924 41.1496 211.927C41.1496 206.931 48.0242 202.88 56.5045 202.88C64.9847 202.88 71.8594 206.931 71.8594 211.927C71.8594 216.924 64.9847 220.974 56.5045 220.974Z" fill="#E0E0E0"/>
<path d="M109.282 108.575L217.155 170.394C218.745 171.309 220.548 171.791 222.383 171.791C224.217 171.791 226.02 171.309 227.61 170.394L232.187 167.701C232.816 167.337 233.337 166.814 233.7 166.185C234.062 165.556 234.253 164.843 234.253 164.117C234.253 163.391 234.062 162.677 233.7 162.048C233.337 161.419 232.816 160.897 232.187 160.533L124.314 98.7086C122.724 97.793 120.921 97.311 119.087 97.311C117.252 97.311 115.449 97.793 113.859 98.7086L109.282 101.402C108.652 101.765 108.13 102.288 107.766 102.918C107.403 103.547 107.212 104.261 107.212 104.988C107.212 105.715 107.403 106.429 107.766 107.059C108.13 107.688 108.652 108.211 109.282 108.575Z" fill="#E0E0E0"/>
<path d="M103.097 224.077L80.7479 236.979L61.5632 225.997L83.2669 212.818L103.097 224.077Z" fill="#E0E0E0"/>
<path d="M111.478 221.409C111.521 221.41 111.564 221.398 111.601 221.373L193.772 173.937C193.831 173.903 193.874 173.847 193.892 173.781C193.909 173.715 193.9 173.645 193.866 173.586C193.832 173.527 193.776 173.484 193.71 173.466C193.645 173.448 193.575 173.457 193.516 173.491L111.345 220.933C111.296 220.962 111.259 221.006 111.238 221.058C111.217 221.11 111.214 221.168 111.229 221.222C111.244 221.276 111.276 221.324 111.322 221.358C111.367 221.392 111.421 221.41 111.478 221.409Z" fill="#455A64"/>
<path d="M102.078 216.305C102.123 216.305 102.167 216.293 102.206 216.269L184.638 168.653C184.667 168.636 184.693 168.613 184.713 168.587C184.734 168.56 184.749 168.53 184.758 168.497C184.767 168.464 184.769 168.43 184.764 168.397C184.76 168.363 184.749 168.331 184.732 168.302C184.716 168.273 184.693 168.247 184.667 168.226C184.64 168.206 184.609 168.191 184.577 168.182C184.544 168.173 184.51 168.171 184.477 168.175C184.443 168.18 184.411 168.19 184.382 168.207L101.95 215.823C101.902 215.852 101.864 215.895 101.843 215.947C101.822 215.999 101.819 216.056 101.833 216.11C101.848 216.164 101.879 216.212 101.924 216.246C101.968 216.28 102.022 216.299 102.078 216.299V216.305Z" fill="#455A64"/>
<path d="M93.067 210.98C93.1087 210.978 93.1493 210.966 93.1847 210.944L175.53 163.41C175.588 163.375 175.631 163.318 175.648 163.252C175.665 163.186 175.656 163.116 175.622 163.057C175.605 163.027 175.583 163.002 175.557 162.981C175.53 162.96 175.5 162.945 175.467 162.937C175.435 162.928 175.401 162.926 175.368 162.931C175.334 162.936 175.302 162.947 175.274 162.964L92.939 210.504C92.88 210.537 92.8366 210.592 92.8184 210.658C92.8001 210.723 92.8085 210.793 92.8417 210.852C92.8649 210.891 92.8978 210.923 92.9374 210.946C92.9769 210.968 93.0215 210.98 93.067 210.98Z" fill="#455A64"/>
<path d="M84.0501 205.655C84.0954 205.656 84.1399 205.643 84.1781 205.619L166.4 158.141C166.433 158.127 166.462 158.105 166.486 158.078C166.51 158.052 166.528 158.02 166.539 157.986C166.55 157.952 166.553 157.916 166.549 157.88C166.545 157.845 166.534 157.81 166.516 157.779C166.498 157.748 166.474 157.722 166.445 157.701C166.416 157.68 166.383 157.665 166.348 157.658C166.313 157.65 166.276 157.65 166.241 157.658C166.206 157.665 166.173 157.68 166.144 157.701L83.9119 205.174C83.8534 205.209 83.811 205.266 83.7938 205.332C83.7766 205.398 83.7859 205.468 83.8197 205.527C83.8429 205.567 83.8766 205.6 83.9172 205.623C83.9578 205.645 84.0037 205.657 84.0501 205.655Z" fill="#455A64"/>
<path d="M75.0341 200.33C75.0791 200.329 75.1229 200.316 75.1621 200.294L157.287 152.878C157.346 152.845 157.389 152.789 157.408 152.724C157.426 152.659 157.417 152.589 157.384 152.53C157.349 152.471 157.292 152.429 157.226 152.412C157.16 152.395 157.09 152.404 157.031 152.438L74.9061 199.849C74.8477 199.884 74.8053 199.941 74.7881 200.007C74.7708 200.073 74.7801 200.143 74.814 200.202C74.8363 200.241 74.8684 200.273 74.907 200.296C74.9456 200.318 74.9895 200.33 75.0341 200.33Z" fill="#455A64"/>
<path d="M65.6032 195.241C65.6478 195.242 65.6919 195.231 65.7312 195.21L148.03 147.691C148.063 147.677 148.092 147.655 148.116 147.629C148.14 147.602 148.158 147.57 148.168 147.536C148.179 147.502 148.183 147.466 148.179 147.43C148.175 147.395 148.164 147.36 148.146 147.329C148.128 147.299 148.104 147.272 148.075 147.251C148.046 147.23 148.013 147.215 147.977 147.208C147.942 147.2 147.906 147.2 147.871 147.208C147.836 147.215 147.803 147.23 147.774 147.251L65.4752 194.765C65.4272 194.793 65.3898 194.837 65.3687 194.888C65.3477 194.94 65.3441 194.997 65.3586 195.051C65.3731 195.105 65.4049 195.153 65.449 195.187C65.4932 195.221 65.5474 195.24 65.6032 195.241Z" fill="#455A64"/>
<path d="M56.5045 189.952C56.5482 189.953 56.5911 189.94 56.6274 189.916L139.039 142.336C139.069 142.32 139.095 142.298 139.116 142.272C139.137 142.245 139.153 142.215 139.162 142.183C139.171 142.15 139.173 142.116 139.169 142.083C139.164 142.049 139.153 142.017 139.136 141.988C139.101 141.929 139.044 141.887 138.978 141.87C138.912 141.853 138.842 141.862 138.783 141.896L56.3509 189.476C56.3025 189.505 56.2649 189.549 56.244 189.601C56.223 189.653 56.2198 189.711 56.235 189.765C56.2502 189.819 56.2828 189.867 56.3278 189.901C56.3728 189.935 56.4278 189.953 56.4841 189.952H56.5045Z" fill="#455A64"/>
<path d="M129.295 221.23C129.351 221.23 129.405 221.211 129.45 221.176C129.494 221.142 129.526 221.095 129.54 221.041C129.555 220.987 129.551 220.929 129.53 220.878C129.509 220.826 129.471 220.782 129.423 220.754L56.6273 178.724C56.598 178.707 56.5658 178.696 56.5323 178.692C56.4988 178.687 56.4649 178.69 56.4323 178.699C56.3997 178.707 56.3692 178.723 56.3425 178.743C56.3158 178.764 56.2934 178.789 56.2766 178.819C56.2598 178.848 56.2489 178.88 56.2445 178.914C56.2402 178.947 56.2425 178.981 56.2513 179.014C56.2601 179.046 56.2752 179.077 56.2958 179.103C56.3164 179.13 56.342 179.152 56.3713 179.169L129.167 221.184C129.204 221.212 129.249 221.228 129.295 221.23Z" fill="#455A64"/>
<path d="M138.394 215.977C138.45 215.976 138.504 215.957 138.548 215.923C138.592 215.889 138.624 215.841 138.639 215.787C138.653 215.733 138.65 215.676 138.629 215.624C138.608 215.573 138.57 215.529 138.522 215.501L65.7362 173.481C65.7072 173.46 65.6741 173.445 65.6391 173.438C65.604 173.43 65.5678 173.43 65.5328 173.437C65.4977 173.445 65.4646 173.459 65.4356 173.48C65.4066 173.501 65.3823 173.528 65.3643 173.559C65.3463 173.59 65.335 173.625 65.3311 173.66C65.3272 173.696 65.3308 173.732 65.3418 173.766C65.3527 173.8 65.3706 173.832 65.3945 173.858C65.4183 173.885 65.4475 173.906 65.4802 173.921L138.24 215.946C138.288 215.971 138.341 215.982 138.394 215.977Z" fill="#455A64"/>
<path d="M147.456 210.724C147.501 210.724 147.545 210.712 147.584 210.689C147.622 210.667 147.654 210.635 147.677 210.596C147.71 210.537 147.72 210.466 147.702 210.4C147.685 210.334 147.643 210.278 147.584 210.243L74.819 168.233C74.7902 168.216 74.7582 168.204 74.725 168.2C74.6917 168.195 74.6579 168.197 74.6254 168.205C74.5929 168.214 74.5625 168.229 74.5359 168.25C74.5094 168.27 74.4873 168.296 74.4708 168.325C74.437 168.384 74.4277 168.455 74.4449 168.521C74.4621 168.587 74.5045 168.643 74.563 168.678L147.354 210.688C147.385 210.706 147.42 210.719 147.456 210.724Z" fill="#455A64"/>
<path d="M156.596 205.481C156.641 205.481 156.685 205.469 156.723 205.446C156.762 205.424 156.794 205.392 156.816 205.353C156.85 205.294 156.859 205.223 156.842 205.157C156.825 205.091 156.783 205.035 156.724 205L83.9688 162.985C83.9095 162.953 83.8401 162.945 83.7752 162.963C83.7103 162.982 83.655 163.024 83.6207 163.082C83.6034 163.111 83.592 163.143 83.5872 163.176C83.5825 163.209 83.5845 163.243 83.5931 163.276C83.6017 163.308 83.6167 163.339 83.6373 163.365C83.6579 163.392 83.6835 163.414 83.7128 163.43L156.468 205.445C156.507 205.467 156.551 205.479 156.596 205.481Z" fill="#455A64"/>
<path d="M165.704 200.233C165.76 200.232 165.814 200.214 165.858 200.179C165.902 200.145 165.934 200.097 165.948 200.043C165.963 199.989 165.959 199.932 165.938 199.881C165.917 199.829 165.88 199.785 165.832 199.757L93.0611 157.742C93.0321 157.721 92.999 157.706 92.964 157.699C92.929 157.691 92.8928 157.691 92.8577 157.699C92.8227 157.706 92.7896 157.721 92.7605 157.742C92.7315 157.763 92.7072 157.789 92.6892 157.82C92.6712 157.851 92.6599 157.886 92.656 157.921C92.6521 157.957 92.6558 157.993 92.6667 158.027C92.6776 158.061 92.6956 158.093 92.7194 158.119C92.7433 158.146 92.7724 158.168 92.8051 158.182L165.576 200.192C165.613 200.218 165.658 200.232 165.704 200.233Z" fill="#455A64"/>
<path d="M174.751 194.954C174.808 194.955 174.862 194.937 174.908 194.903C174.953 194.869 174.985 194.821 175 194.767C175.015 194.713 175.012 194.655 174.991 194.603C174.97 194.551 174.933 194.507 174.884 194.478L102.18 152.494C102.121 152.46 102.051 152.451 101.985 152.469C101.92 152.487 101.864 152.53 101.83 152.589C101.796 152.648 101.787 152.718 101.804 152.784C101.822 152.85 101.865 152.906 101.924 152.94L174.628 194.924C174.665 194.946 174.708 194.957 174.751 194.954Z" fill="#455A64"/>
<path d="M183.89 189.727C183.935 189.726 183.978 189.714 184.017 189.692C184.056 189.67 184.088 189.637 184.11 189.599C184.144 189.539 184.153 189.469 184.136 189.403C184.119 189.337 184.076 189.281 184.018 189.245L111.278 147.261C111.249 147.24 111.216 147.226 111.181 147.218C111.146 147.211 111.11 147.211 111.075 147.218C111.04 147.225 111.007 147.24 110.978 147.261C110.949 147.282 110.924 147.309 110.906 147.34C110.888 147.371 110.877 147.405 110.873 147.441C110.869 147.476 110.873 147.512 110.884 147.546C110.895 147.581 110.913 147.612 110.936 147.639C110.96 147.665 110.99 147.687 111.022 147.702L183.762 189.686C183.801 189.709 183.845 189.723 183.89 189.727Z" fill="#455A64"/>
<path d="M193.024 184.504C193.08 184.504 193.134 184.485 193.178 184.451C193.222 184.416 193.254 184.369 193.269 184.315C193.283 184.261 193.28 184.204 193.258 184.152C193.237 184.1 193.2 184.057 193.152 184.028L120.366 142.003C120.307 141.969 120.237 141.96 120.171 141.977C120.105 141.994 120.048 142.037 120.013 142.095C119.981 142.155 119.973 142.226 119.991 142.291C120.009 142.357 120.052 142.413 120.11 142.449L192.916 184.468C192.949 184.489 192.986 184.501 193.024 184.504Z" fill="#455A64"/>
<path d="M120.377 226.647C120.422 226.649 120.467 226.636 120.505 226.611L202.809 179.154C202.848 179.132 202.881 179.099 202.904 179.06C202.926 179.021 202.938 178.976 202.938 178.931C202.938 178.886 202.926 178.841 202.904 178.802C202.881 178.763 202.848 178.731 202.809 178.708L129.736 136.53C129.697 136.507 129.653 136.496 129.608 136.496C129.563 136.496 129.519 136.507 129.48 136.53L46.8586 184.09C46.8199 184.113 46.7878 184.146 46.7654 184.186C46.743 184.225 46.731 184.27 46.7306 184.315C46.7309 184.36 46.7429 184.403 46.7653 184.442C46.7878 184.481 46.8199 184.513 46.8586 184.535L120.249 226.611C120.287 226.635 120.332 226.647 120.377 226.647ZM202.169 178.934L120.377 226.094L47.5038 184.32L129.608 137.047L202.169 178.934Z" fill="#455A64"/>
<path d="M226.228 167.122V87.8283L229.453 85.9697V164.352C229.451 164.755 229.362 165.153 229.193 165.519C229.023 165.884 228.778 166.209 228.472 166.472C228.166 166.735 227.807 166.929 227.42 167.041C227.033 167.153 226.626 167.18 226.228 167.122Z" fill="#EBEBEB"/>
<path d="M228.009 166.794L224.691 168.668V162.821L228.009 166.794Z" fill="#EBEBEB"/>
<path d="M111.442 16.384V100.055C111.444 101.564 111.842 103.046 112.597 104.352C113.352 105.659 114.437 106.744 115.743 107.499L222.004 168.602C222.432 168.849 222.917 168.979 223.411 168.979C223.905 168.979 224.391 168.849 224.819 168.602C225.247 168.355 225.602 168 225.85 167.572C226.097 167.144 226.227 166.659 226.228 166.164V82.4729C226.228 80.9636 225.83 79.4809 225.075 78.174C224.32 76.8671 223.234 75.7822 221.927 75.0285L115.666 13.9264C115.237 13.6784 114.749 13.5483 114.254 13.5491C113.758 13.5499 113.271 13.6817 112.842 13.9311C112.413 14.1805 112.058 14.5386 111.812 14.9694C111.567 15.4001 111.439 15.8881 111.442 16.384Z" fill="#FAFAFA"/>
<path d="M114.263 14.0542C113.959 14.0549 113.657 14.1158 113.376 14.2333C113.095 14.3509 112.839 14.5228 112.625 14.7393C112.41 14.9558 112.241 15.2125 112.126 15.4947C112.01 15.7769 111.952 16.0791 111.954 16.3838V100.055C111.957 101.473 112.332 102.866 113.042 104.095C113.752 105.323 114.771 106.343 115.999 107.054L222.26 168.156C222.607 168.36 223.003 168.468 223.406 168.468C224.018 168.468 224.605 168.226 225.037 167.794C225.47 167.362 225.714 166.776 225.716 166.164V82.4728C225.713 81.0542 225.338 79.6612 224.628 78.433C223.918 77.2048 222.898 76.1844 221.671 75.4738L115.41 14.3666C115.062 14.163 114.667 14.0553 114.263 14.0542ZM114.263 13.5422C114.757 13.5437 115.241 13.6762 115.666 13.9262L221.927 75.0283C223.234 75.7821 224.32 76.867 225.075 78.1739C225.83 79.4808 226.228 80.9635 226.228 82.4728V166.164C226.227 166.658 226.097 167.144 225.85 167.572C225.602 168 225.247 168.355 224.819 168.602C224.391 168.849 223.905 168.979 223.411 168.979C222.917 168.979 222.432 168.848 222.004 168.601L115.743 107.52C114.437 106.764 113.352 105.679 112.597 104.373C111.842 103.066 111.444 101.584 111.442 100.075V16.3838C111.442 15.6356 111.739 14.9181 112.269 14.389C112.798 13.8599 113.515 13.5627 114.263 13.5627V13.5422Z" fill="#E0E0E0"/>
<path d="M115.994 12.1548C116.425 11.8804 116.924 11.7299 117.435 11.72C117.946 11.7101 118.45 11.841 118.892 12.0985L225.152 73.2159C226.46 73.9701 227.545 75.0551 228.3 76.3619C229.055 77.6687 229.453 79.1512 229.453 80.6604V85.9852L226.228 87.8438L114.688 23.4239V15.831L112.814 13.9571L116.009 12.1497L115.994 12.1548Z" fill="#00A651"/>
<path d="M111.442 16.384V21.5603L226.228 87.8285V82.4729C226.228 80.9636 225.83 79.4809 225.075 78.174C224.32 76.8671 223.234 75.7822 221.927 75.0285L115.666 13.9264C115.237 13.6784 114.749 13.5483 114.254 13.5491C113.758 13.5499 113.271 13.6817 112.842 13.9311C112.413 14.1805 112.058 14.5386 111.812 14.9694C111.567 15.4001 111.439 15.8881 111.442 16.384Z" fill="#00A651"/>
<g style="mix-blend-mode:overlay" opacity="0.5">
<path d="M111.442 16.384V21.5603L226.228 87.8285V82.4729C226.228 80.9636 225.83 79.4809 225.075 78.174C224.32 76.8671 223.234 75.7822 221.927 75.0285L115.666 13.9264C115.237 13.6784 114.749 13.5483 114.254 13.5491C113.758 13.5499 113.271 13.6817 112.842 13.9311C112.413 14.1805 112.058 14.5386 111.812 14.9694C111.567 15.4001 111.439 15.8881 111.442 16.384Z" fill="white"/>
</g>
<path opacity="0.2" d="M228.352 76.4312C229.079 77.7164 229.462 79.168 229.463 80.6449V85.9697L226.237 87.8283V82.4728C226.238 81.0042 225.86 79.5602 225.142 78.2795L228.352 76.4312Z" fill="black"/>
<path d="M171.899 126.008C172.738 126.018 173.564 125.806 174.295 125.394C176.015 124.395 176.968 122.322 176.968 119.552C176.968 113.966 173.03 107.146 168.187 104.351C165.791 102.963 163.518 102.753 161.797 103.746C160.077 104.74 159.119 106.818 159.119 109.583C159.119 115.174 163.057 121.994 167.9 124.79C169.104 125.537 170.483 125.957 171.899 126.008ZM164.188 103.711C165.504 103.763 166.783 104.156 167.9 104.852C172.58 107.556 176.384 114.15 176.384 119.552C176.384 122.112 175.539 124.001 174.003 124.892C172.467 125.783 170.419 125.563 168.187 124.288C163.507 121.585 159.703 114.99 159.703 109.583C159.703 107.023 160.548 105.134 162.084 104.248C162.726 103.887 163.452 103.701 164.188 103.711Z" fill="#455A64"/>
<path d="M168.043 127.237C168.12 127.236 168.194 127.205 168.248 127.15C168.302 127.096 168.334 127.022 168.335 126.945V100.352C168.335 100.275 168.304 100.2 168.249 100.146C168.195 100.091 168.121 100.06 168.043 100.06C167.966 100.06 167.891 100.091 167.837 100.146C167.782 100.2 167.751 100.275 167.751 100.352V126.976C167.76 127.047 167.794 127.113 167.848 127.161C167.902 127.209 167.971 127.236 168.043 127.237Z" fill="#00A651"/>
<path d="M179.804 121.707C179.854 121.707 179.904 121.693 179.948 121.668C179.992 121.643 180.029 121.607 180.055 121.564C180.092 121.497 180.102 121.419 180.082 121.345C180.061 121.271 180.013 121.208 179.947 121.17L158.08 108.544C158.047 108.524 158.011 108.511 157.973 108.506C157.935 108.5 157.896 108.503 157.859 108.513C157.823 108.523 157.788 108.54 157.758 108.564C157.728 108.588 157.704 108.618 157.685 108.651C157.666 108.684 157.654 108.721 157.649 108.758C157.644 108.796 157.647 108.834 157.657 108.871C157.667 108.908 157.684 108.942 157.707 108.972C157.731 109.002 157.76 109.027 157.793 109.046L179.661 121.671C179.704 121.696 179.754 121.709 179.804 121.707Z" fill="#00A651"/>
<path d="M178.278 122.563C178.329 122.561 178.378 122.547 178.422 122.522L180.198 121.498L178.575 118.687C178.556 118.653 178.531 118.623 178.501 118.6C178.471 118.576 178.436 118.558 178.399 118.548C178.362 118.537 178.323 118.534 178.285 118.539C178.246 118.543 178.209 118.555 178.176 118.574C178.142 118.593 178.113 118.618 178.089 118.648C178.065 118.679 178.047 118.713 178.037 118.75C178.026 118.787 178.023 118.826 178.028 118.865C178.032 118.903 178.044 118.94 178.063 118.973L179.394 121.283L178.12 122.02C178.053 122.059 178.005 122.123 177.986 122.198C177.967 122.273 177.978 122.353 178.017 122.419C178.043 122.465 178.081 122.503 178.127 122.528C178.173 122.554 178.226 122.565 178.278 122.563Z" fill="#00A651"/>
<path d="M169.549 103.265C169.599 103.264 169.649 103.25 169.692 103.224C169.758 103.186 169.807 103.123 169.827 103.049C169.847 102.975 169.837 102.897 169.8 102.83L168.126 99.9321L166.395 100.931C166.327 100.969 166.277 101.033 166.257 101.109C166.236 101.184 166.246 101.265 166.285 101.332C166.324 101.4 166.388 101.45 166.463 101.471C166.539 101.491 166.619 101.481 166.687 101.443L167.916 100.736L169.293 103.127C169.321 103.17 169.359 103.205 169.403 103.229C169.448 103.253 169.498 103.266 169.549 103.265Z" fill="#00A651"/>
<path d="M145.244 93.8955L149.453 96.3275C149.729 96.4862 149.965 96.3275 149.965 95.9486V91.2689C149.961 91.0803 149.913 90.8953 149.824 90.7289C149.735 90.5625 149.608 90.4195 149.453 90.3115L145.244 87.8795C144.968 87.7208 144.732 87.8795 144.732 88.2584V92.9432C144.737 93.131 144.785 93.3152 144.874 93.4807C144.963 93.6462 145.09 93.7883 145.244 93.8955Z" fill="#00A651"/>
<path d="M137.267 89.2209L141.481 91.6478C141.753 91.8065 141.993 91.6478 141.993 91.2689V86.5892C141.988 86.4008 141.94 86.216 141.851 86.0498C141.762 85.8835 141.635 85.7404 141.481 85.6318L137.267 83.1998C136.991 83.0411 136.755 83.1998 136.755 83.5787V88.2635C136.759 88.4523 136.807 88.6376 136.896 88.8041C136.985 88.9706 137.112 89.1135 137.267 89.2209Z" fill="#00A651"/>
<path d="M145.244 102.855L149.453 105.287C149.729 105.446 149.965 105.287 149.965 104.909V100.224C149.961 100.036 149.912 99.8518 149.823 99.6863C149.734 99.5208 149.607 99.3787 149.453 99.2715L145.244 96.8395C144.968 96.6807 144.732 96.8395 144.732 97.2183V101.888C144.735 102.078 144.782 102.265 144.871 102.434C144.96 102.602 145.088 102.746 145.244 102.855Z" fill="#00A651"/>
<path d="M137.267 98.1809L141.481 100.613C141.753 100.772 141.993 100.613 141.993 100.234V95.5492C141.988 95.3614 141.94 95.1774 141.851 95.012C141.762 94.8466 141.635 94.7044 141.481 94.5969L137.267 92.1598C136.991 92.001 136.755 92.1598 136.755 92.5386V97.2183C136.759 97.4078 136.807 97.5939 136.896 97.7612C136.985 97.9286 137.112 98.0724 137.267 98.1809Z" fill="#00A651"/>
<path d="M145.244 111.811L149.453 114.243C149.729 114.401 149.965 114.243 149.965 113.864V109.184C149.961 108.995 149.913 108.81 149.824 108.644C149.735 108.478 149.608 108.335 149.453 108.227L145.244 105.795C144.968 105.636 144.732 105.795 144.732 106.173V110.858C144.737 111.046 144.785 111.23 144.874 111.396C144.963 111.561 145.09 111.703 145.244 111.811Z" fill="#00A651"/>
<path d="M137.267 107.136L141.481 109.568C141.753 109.727 141.993 109.568 141.993 109.194V104.509C141.988 104.321 141.94 104.136 141.851 103.97C141.762 103.804 141.635 103.661 141.481 103.552L137.267 101.12C136.991 100.961 136.755 101.12 136.755 101.499V106.184C136.759 106.372 136.808 106.556 136.897 106.721C136.986 106.887 137.113 107.029 137.267 107.136Z" fill="#00A651"/>
<path d="M129.29 84.5465L133.504 86.9785C133.78 87.1372 134.016 86.9785 134.016 86.6047V81.9199C134.012 81.7313 133.963 81.5462 133.874 81.3799C133.785 81.2135 133.658 81.0705 133.504 80.9625L129.29 78.5356C129.019 78.3717 128.778 78.5356 128.778 78.9093V83.5941C128.783 83.7819 128.831 83.9659 128.92 84.1314C129.009 84.2968 129.136 84.439 129.29 84.5465Z" fill="#00A651"/>
<path d="M129.29 93.5063L133.504 95.9383C133.78 96.0971 134.016 95.9383 134.016 95.5595V90.8747C134.012 90.6867 133.963 90.5024 133.874 90.3369C133.785 90.1713 133.658 90.0292 133.504 89.9223L129.29 87.4903C129.019 87.3316 128.778 87.4903 128.778 87.8692V92.554C128.783 92.7416 128.833 92.9253 128.921 93.0906C129.01 93.2559 129.136 93.3983 129.29 93.5063Z" fill="#00A651"/>
<path d="M129.29 102.466L133.504 104.893C133.78 105.052 134.016 104.893 134.016 104.52V99.8398C134.012 99.6512 133.963 99.4662 133.874 99.2998C133.785 99.1334 133.658 98.9904 133.504 98.8824L129.29 96.4555C129.019 96.2917 128.778 96.4555 128.778 96.8293V101.514C128.784 101.702 128.834 101.885 128.922 102.05C129.011 102.215 129.137 102.358 129.29 102.466Z" fill="#00A651"/>
<path d="M121.318 79.8719L125.527 82.2988C125.804 82.4575 126.039 82.2988 126.039 81.925V77.2402C126.034 77.0517 125.986 76.867 125.897 76.7007C125.808 76.5345 125.681 76.3914 125.527 76.2828L121.318 73.8559C121.042 73.6921 120.806 73.8559 120.806 74.2297V78.9145C120.811 79.1029 120.86 79.2877 120.949 79.4539C121.038 79.6202 121.164 79.7633 121.318 79.8719Z" fill="#00A651"/>
<path d="M121.318 88.8318L125.527 91.2638C125.804 91.4225 126.039 91.2638 126.039 90.8849V86.2001C126.034 86.0123 125.986 85.8283 125.897 85.6629C125.808 85.4975 125.681 85.3553 125.527 85.2478L121.318 82.8158C121.042 82.6571 120.806 82.8158 120.806 83.1947V87.8795C120.811 88.0673 120.859 88.2515 120.948 88.4169C121.037 88.5824 121.164 88.7246 121.318 88.8318Z" fill="#00A651"/>
<path opacity="0.2" d="M145.244 102.855L149.453 105.287C149.729 105.446 149.965 105.287 149.965 104.909V100.224C149.961 100.036 149.912 99.8518 149.823 99.6863C149.734 99.5208 149.607 99.3787 149.453 99.2715L145.244 96.8395C144.968 96.6807 144.732 96.8395 144.732 97.2183V101.888C144.735 102.078 144.782 102.265 144.871 102.434C144.96 102.602 145.088 102.746 145.244 102.855Z" fill="black"/>
<path opacity="0.2" d="M137.267 98.1809L141.481 100.613C141.753 100.772 141.993 100.613 141.993 100.234V95.5492C141.988 95.3614 141.94 95.1774 141.851 95.012C141.762 94.8466 141.635 94.7044 141.481 94.5969L137.267 92.1598C136.991 92.001 136.755 92.1598 136.755 92.5386V97.2183C136.759 97.4078 136.807 97.5939 136.896 97.7612C136.985 97.9286 137.112 98.0724 137.267 98.1809Z" fill="black"/>
<path opacity="0.2" d="M129.29 93.5063L133.504 95.9383C133.78 96.0971 134.016 95.9383 134.016 95.5595V90.8747C134.012 90.6867 133.963 90.5024 133.874 90.3369C133.785 90.1713 133.658 90.0292 133.504 89.9223L129.29 87.4903C129.019 87.3316 128.778 87.4903 128.778 87.8692V92.554C128.783 92.7416 128.833 92.9253 128.921 93.0906C129.01 93.2559 129.136 93.3983 129.29 93.5063Z" fill="black"/>
<path opacity="0.2" d="M121.318 88.8318L125.527 91.2638C125.804 91.4225 126.039 91.2638 126.039 90.8849V86.2001C126.034 86.0123 125.986 85.8283 125.897 85.6629C125.808 85.4975 125.681 85.3553 125.527 85.2478L121.318 82.8158C121.042 82.6571 120.806 82.8158 120.806 83.1947V87.8795C120.811 88.0673 120.859 88.2515 120.948 88.4169C121.037 88.5824 121.164 88.7246 121.318 88.8318Z" fill="black"/>
<path d="M121.318 97.7918L125.527 100.219C125.804 100.383 126.039 100.219 126.039 99.8449V95.1601C126.034 94.9717 125.986 94.7869 125.897 94.6207C125.808 94.4544 125.681 94.3113 125.527 94.2027L121.318 91.7758C121.042 91.6171 120.806 91.7758 120.806 92.1496V96.8344C120.811 97.0229 120.86 97.2076 120.949 97.3738C121.038 97.5401 121.164 97.6832 121.318 97.7918Z" fill="#00A651"/>
<path opacity="0.3" d="M145.244 111.811L149.453 114.243C149.729 114.401 149.965 114.243 149.965 113.864V109.184C149.961 108.995 149.913 108.81 149.824 108.644C149.735 108.478 149.608 108.335 149.453 108.227L145.244 105.795C144.968 105.636 144.732 105.795 144.732 106.173V110.858C144.737 111.046 144.785 111.23 144.874 111.396C144.963 111.561 145.09 111.703 145.244 111.811Z" fill="black"/>
<path opacity="0.3" d="M137.267 107.136L141.481 109.568C141.753 109.727 141.993 109.568 141.993 109.194V104.509C141.988 104.321 141.94 104.136 141.851 103.97C141.762 103.804 141.635 103.661 141.481 103.552L137.267 101.12C136.991 100.961 136.755 101.12 136.755 101.499V106.184C136.759 106.372 136.808 106.556 136.897 106.721C136.986 106.887 137.113 107.029 137.267 107.136Z" fill="black"/>
<path opacity="0.3" d="M129.29 102.466L133.504 104.893C133.78 105.052 134.016 104.893 134.016 104.52V99.8398C134.012 99.6512 133.963 99.4662 133.874 99.2998C133.785 99.1334 133.658 98.9904 133.504 98.8824L129.29 96.4555C129.019 96.2917 128.778 96.4555 128.778 96.8293V101.514C128.784 101.702 128.834 101.885 128.922 102.05C129.011 102.215 129.137 102.358 129.29 102.466Z" fill="black"/>
<path opacity="0.3" d="M121.318 97.7918L125.527 100.219C125.804 100.383 126.039 100.219 126.039 99.8449V95.1601C126.034 94.9717 125.986 94.7869 125.897 94.6207C125.808 94.4544 125.681 94.3113 125.527 94.2027L121.318 91.7758C121.042 91.6171 120.806 91.7758 120.806 92.1496V96.8344C120.811 97.0229 120.86 97.2076 120.949 97.3738C121.038 97.5401 121.164 97.6832 121.318 97.7918Z" fill="black"/>
<path d="M193.572 108.631L214.175 120.53C215.526 121.308 216.622 120.479 216.622 118.682V95.744C216.622 93.9417 215.526 91.8528 214.175 91.0745L193.572 79.1757C192.22 78.3974 191.124 79.2217 191.124 81.024V103.946C191.124 105.759 192.22 107.853 193.572 108.631Z" fill="#455A64"/>
<path d="M199.875 92.7795L210.673 99.0105L207.872 94.4691L197.074 88.238L199.875 92.7795Z" fill="#00A651"/>
<path opacity="0.2" d="M199.875 92.7795L210.673 99.0105L207.872 94.4691L197.074 88.238L199.875 92.7795Z" fill="white"/>
<path d="M199.875 105.247L210.673 111.483V99.0106L199.875 92.7795V105.247Z" fill="#00A651"/>
<path d="M199.874 92.7795L197.073 88.238V100.705L199.874 105.247V92.7795Z" fill="#00A651"/>
<path opacity="0.2" d="M199.874 92.7795L197.073 88.238V100.705L199.874 105.247V92.7795Z" fill="black"/>
<path d="M158.627 88.4582L179.23 100.352C180.582 101.13 181.678 100.306 181.678 98.5036V75.5865C181.678 73.7843 180.582 71.6953 179.23 70.9119L158.627 59.0182C157.276 58.2348 156.18 59.0642 156.18 60.8665V83.7836C156.16 85.5859 157.276 87.6748 158.627 88.4582Z" fill="#455A64"/>
<path d="M164.93 72.6015L175.729 78.8377L172.928 74.2962L162.13 68.0652L164.93 72.6015Z" fill="#00A651"/>
<path d="M164.93 85.0739L175.729 91.3049V78.8377L164.93 72.6016V85.0739Z" fill="#00A651"/>
<path d="M164.931 72.6015L162.13 68.0652V80.5324L164.931 85.0738V72.6015Z" fill="#00A651"/>
<path opacity="0.2" d="M164.931 72.6015L162.13 68.0652V80.5324L164.931 85.0738V72.6015Z" fill="black"/>
<path opacity="0.2" d="M175.729 78.8376L172.928 74.2961V86.7633L175.729 91.3048V78.8376Z" fill="black"/>
<path opacity="0.3" d="M164.93 85.0739L175.729 91.305L172.928 86.7635L162.13 80.5325L164.93 85.0739Z" fill="black"/>
<path opacity="0.2" d="M164.93 72.6015L175.729 78.8377L172.928 74.2962L162.13 68.0652L164.93 72.6015Z" fill="white"/>
<path d="M123.684 68.2802L144.287 80.1791C145.639 80.9573 146.734 80.1279 146.734 78.3308V55.4085C146.734 53.6114 145.639 51.5173 144.287 50.7391L123.684 38.8402C122.332 38.062 121.237 38.8914 121.237 40.6885V63.6108C121.237 65.4079 122.332 67.502 123.684 68.2802Z" fill="#455A64"/>
<path d="M140.8 58.8798C140.829 58.8805 140.858 58.8749 140.884 58.8634C140.911 58.8519 140.934 58.8348 140.954 58.8133C140.982 58.7766 140.997 58.7316 140.997 58.6853C140.997 58.639 140.982 58.594 140.954 58.5573L138.153 54.0158C138.136 53.986 138.111 53.9613 138.081 53.9441L127.283 47.708C127.242 47.6864 127.195 47.6787 127.149 47.6861C127.103 47.6935 127.061 47.7156 127.028 47.749C126.996 47.7825 126.976 47.8255 126.97 47.8716C126.964 47.9178 126.973 47.9646 126.996 48.0049L129.797 52.5464C129.817 52.574 129.841 52.5982 129.869 52.6181L140.667 58.8491C140.707 58.8735 140.753 58.8843 140.8 58.8798ZM137.851 54.2718L140.18 58.0606L130.155 52.2699L127.821 48.4811L137.851 54.2718Z" fill="#00A651"/>
<path d="M140.8 71.342C140.837 71.3408 140.874 71.332 140.907 71.3164C140.938 71.2967 140.964 71.2695 140.982 71.2373C141 71.2051 141.009 71.1689 141.01 71.132V58.6649C141.01 58.6279 141.001 58.5916 140.983 58.5593C140.965 58.527 140.939 58.4999 140.907 58.4805L130.094 52.2239C130.061 52.2064 130.024 52.1973 129.986 52.1973C129.949 52.1973 129.912 52.2064 129.879 52.2239C129.848 52.2436 129.822 52.2708 129.804 52.303C129.786 52.3352 129.777 52.3714 129.776 52.4082V64.8754C129.776 64.9123 129.786 64.9487 129.804 64.981C129.821 65.0133 129.847 65.0404 129.879 65.0597L140.677 71.2959C140.714 71.3209 140.756 71.3367 140.8 71.342ZM140.59 58.7826V70.7685L130.212 64.7781V52.7922L140.59 58.7826Z" fill="#00A651"/>
<path d="M137.984 66.8005C138.021 66.7993 138.058 66.7906 138.092 66.7749C138.124 66.7559 138.15 66.7289 138.168 66.6965C138.186 66.6642 138.195 66.6276 138.194 66.5906V54.1234C138.195 54.0863 138.187 54.0495 138.169 54.017C138.151 53.9846 138.124 53.9576 138.092 53.9391L127.294 47.7029C127.262 47.6854 127.225 47.6763 127.189 47.6763C127.152 47.6763 127.116 47.6854 127.084 47.7029C127.051 47.7216 127.024 47.7485 127.006 47.7808C126.987 47.8131 126.977 47.8498 126.976 47.8872V60.3544C126.976 60.3919 126.986 60.4288 127.005 60.4613C127.024 60.4937 127.051 60.5204 127.084 60.5387L137.882 66.7749C137.914 66.7911 137.949 66.7998 137.984 66.8005ZM137.774 54.2463V66.2271L127.396 60.2367V48.2507L137.774 54.2463Z" fill="#00A651"/>
<path d="M129.986 65.1059H130.048C130.092 65.0935 130.131 65.0667 130.159 65.0296C130.187 64.9926 130.202 64.9474 130.201 64.9011V52.4288C130.201 52.3892 130.191 52.3502 130.17 52.3161L127.37 47.7798C127.347 47.7396 127.311 47.7085 127.268 47.6917C127.226 47.6749 127.178 47.6735 127.134 47.6877C127.091 47.6999 127.052 47.7259 127.024 47.7619C126.996 47.7979 126.981 47.8419 126.981 47.8873V60.3545C126.981 60.3942 126.991 60.4331 127.011 60.4672L129.807 65.024C129.828 65.0509 129.855 65.0724 129.887 65.0867C129.918 65.1009 129.952 65.1075 129.986 65.1059ZM129.776 52.4902V64.1536L127.395 60.2982V48.64L129.776 52.4902Z" fill="#00A651"/>
<path d="M140.8 71.3419C140.84 71.3413 140.879 71.3307 140.913 71.3112C140.96 71.2807 140.993 71.2332 141.005 71.1788C141.018 71.1243 141.009 71.0671 140.98 71.0194L138.179 66.4779C138.149 66.4304 138.101 66.3967 138.047 66.3842C137.992 66.3717 137.935 66.3815 137.887 66.4114C137.84 66.4412 137.806 66.4888 137.793 66.5435C137.781 66.5982 137.791 66.6557 137.82 66.7032L140.621 71.2446C140.641 71.2744 140.667 71.2989 140.698 71.3159C140.73 71.3329 140.765 71.3418 140.8 71.3419Z" fill="#00A651"/>
<path d="M193.572 121.953L214.175 133.852C215.526 134.63 216.622 133.806 216.622 132.004C216.622 130.207 215.526 128.113 214.175 127.334L193.572 115.435C192.22 114.657 191.124 115.487 191.124 117.284C191.124 119.086 192.22 121.175 193.572 121.953Z" fill="#00A651"/>
<path d="M193.572 131.456L214.175 143.36C215.526 144.138 216.622 143.309 216.622 141.512C216.622 139.709 215.526 137.62 214.175 136.842L193.572 124.928C192.22 124.15 191.124 124.974 191.124 126.776C191.124 128.589 192.22 130.678 193.572 131.456Z" fill="#00A651"/>
<path d="M193.572 140.959L214.175 152.857C215.526 153.636 216.622 152.806 216.622 151.009C216.622 149.207 215.526 147.118 214.175 146.335L193.572 134.441C192.22 133.657 191.124 134.487 191.124 136.289C191.124 138.086 192.22 140.18 193.572 140.959Z" fill="#00A651"/>
<path d="M49.7505 196.931H63.252V211.231C63.252 212.229 62.5915 213.228 61.2756 213.991C58.6388 215.527 54.3636 215.527 51.7268 213.991C50.411 213.228 49.7505 212.229 49.7505 211.231V196.931Z" fill="#00A651"/>
<path opacity="0.4" d="M49.7505 196.931H63.252V211.231C63.252 212.229 62.5915 213.228 61.2756 213.991C58.6388 215.527 54.3636 215.527 51.7268 213.991C50.411 213.228 49.7505 212.229 49.7505 211.231V196.931Z" fill="black"/>
<path d="M56.5038 200.837C52.7769 200.837 49.7556 199.093 49.7556 196.941C49.7556 194.789 52.7769 193.044 56.5038 193.044C60.2307 193.044 63.252 194.789 63.252 196.941C63.252 199.093 60.2307 200.837 56.5038 200.837Z" fill="#00A651"/>
<path d="M44.5432 189.722H68.4639V195.139C68.4639 196.905 67.2965 198.671 64.9618 200.023C60.2872 202.721 52.7147 202.721 48.0402 200.023C45.7055 198.671 44.5381 196.905 44.5381 195.139L44.5432 189.722Z" fill="#00A651"/>
<path opacity="0.2" d="M44.5432 189.722H68.4639V195.139C68.4639 196.905 67.2965 198.671 64.9618 200.023C60.2872 202.721 52.7147 202.721 48.0402 200.023C45.7055 198.671 44.5381 196.905 44.5381 195.139L44.5432 189.722Z" fill="black"/>
<path d="M48.0402 194.621C52.7148 197.32 60.2873 197.32 64.9619 194.621C69.6364 191.923 69.6364 187.551 64.9619 184.853C60.2873 182.154 52.7148 182.154 48.0402 184.853C43.3657 187.551 43.3657 191.923 48.0402 194.621Z" fill="#00A651"/>
<path d="M49.7505 173.256H63.252V187.561C63.252 188.554 62.5915 189.553 61.2756 190.315C58.6388 191.851 54.3636 191.851 51.7268 190.315C50.411 189.553 49.7505 188.559 49.7505 187.561V173.256Z" fill="#00A651"/>
<path opacity="0.2" d="M49.7505 173.256H63.252V187.561C63.252 188.554 62.5915 189.553 61.2756 190.315C58.6388 191.851 54.3636 191.851 51.7268 190.315C50.411 189.553 49.7505 188.559 49.7505 187.561V173.256Z" fill="black"/>
<path d="M56.5038 177.162C52.7769 177.162 49.7556 175.418 49.7556 173.266C49.7556 171.114 52.7769 169.37 56.5038 169.37C60.2307 169.37 63.252 171.114 63.252 173.266C63.252 175.418 60.2307 177.162 56.5038 177.162Z" fill="#00A651"/>
<path d="M80.824 233.16L98.2832 223.079V205.865L89.5536 200.883L80.824 215.941V233.16Z" fill="#00A651"/>
<path opacity="0.2" d="M80.824 233.16L98.2832 223.079V205.865L89.5536 200.883L80.824 215.941V233.16Z" fill="white"/>
<path d="M80.8241 215.941L89.5537 200.883L78.0184 194.217L69.2887 209.28L80.8241 215.941Z" fill="#00A651"/>
<path d="M80.8242 233.16V215.941L69.2889 209.28V226.499L80.8242 233.16Z" fill="#00A651"/>
<path opacity="0.2" d="M80.8242 233.16V215.941L69.2889 209.28V226.499L80.8242 233.16Z" fill="black"/>
</g>
</svg>
