<svg width="256" height="235" viewBox="0 0 256 235" fill="none" xmlns="http://www.w3.org/2000/svg">
<g opacity="0.1">
<path d="M128 218.911C182.826 218.911 227.272 215.268 227.272 210.775C227.272 206.282 182.826 202.639 128 202.639C73.174 202.639 28.7285 206.282 28.7285 210.775C28.7285 215.268 73.174 218.911 128 218.911Z" fill="#F5F5F5"/>
<path d="M152.412 178.647H143.708C139.176 178.647 135.516 185.216 135.516 193.321C135.516 201.426 139.187 207.99 143.708 207.99H152.412C156.943 207.99 160.604 201.421 160.604 193.321C160.604 185.221 156.943 178.647 152.412 178.647Z" fill="#263238"/>
<mask id="mask0_733_551" style="mask-type:luminance" maskUnits="userSpaceOnUse" x="135" y="178" width="26" height="30">
<path d="M152.412 178.647H143.708C139.176 178.647 135.516 185.216 135.516 193.321C135.516 201.426 139.187 207.99 143.708 207.99H152.412C156.943 207.99 160.604 201.421 160.604 193.321C160.604 185.221 156.943 178.647 152.412 178.647Z" fill="white"/>
</mask>
<g mask="url(#mask0_733_551)">
<path opacity="0.05" d="M162.652 178.647H153.948C149.417 178.647 145.756 185.216 145.756 193.321C145.756 201.426 149.427 207.99 153.948 207.99H162.652C167.183 207.99 170.844 201.421 170.844 193.321C170.844 185.221 167.183 178.647 162.652 178.647Z" fill="white"/>
</g>
<path d="M222.919 181.791L70.502 181.683V84.3264H222.919V181.791Z" fill="#00A651"/>
<path opacity="0.3" d="M222.919 84.3264H119.618V181.786H222.919V84.3264Z" fill="#263238"/>
<path opacity="0.2" d="M119.618 84.3264H70.502V183.711H119.618V84.3264Z" fill="white"/>
<path opacity="0.1" d="M70.8701 88.8525H222.919" stroke="white" stroke-width="1.024" stroke-linecap="round" stroke-linejoin="round"/>
<path opacity="0.1" d="M70.8701 93.0662H222.919" stroke="white" stroke-width="1.024" stroke-linecap="round" stroke-linejoin="round"/>
<path opacity="0.1" d="M70.8701 97.2749H222.919" stroke="white" stroke-width="1.024" stroke-linecap="round" stroke-linejoin="round"/>
<path opacity="0.1" d="M70.8701 101.483H222.919" stroke="white" stroke-width="1.024" stroke-linecap="round" stroke-linejoin="round"/>
<path opacity="0.1" d="M70.8701 105.697H222.919" stroke="white" stroke-width="1.024" stroke-linecap="round" stroke-linejoin="round"/>
<path opacity="0.1" d="M70.8701 109.906H222.919" stroke="white" stroke-width="1.024" stroke-linecap="round" stroke-linejoin="round"/>
<path opacity="0.1" d="M70.8701 114.115H222.919" stroke="white" stroke-width="1.024" stroke-linecap="round" stroke-linejoin="round"/>
<path opacity="0.1" d="M70.8701 118.323H222.919" stroke="white" stroke-width="1.024" stroke-linecap="round" stroke-linejoin="round"/>
<path opacity="0.1" d="M70.8701 122.537H222.919" stroke="white" stroke-width="1.024" stroke-linecap="round" stroke-linejoin="round"/>
<path opacity="0.1" d="M70.8701 126.746H222.919" stroke="white" stroke-width="1.024" stroke-linecap="round" stroke-linejoin="round"/>
<path opacity="0.1" d="M70.8701 130.954H222.919" stroke="white" stroke-width="1.024" stroke-linecap="round" stroke-linejoin="round"/>
<path opacity="0.1" d="M70.8701 135.168H222.919" stroke="white" stroke-width="1.024" stroke-linecap="round" stroke-linejoin="round"/>
<path opacity="0.1" d="M70.8701 139.377H222.919" stroke="white" stroke-width="1.024" stroke-linecap="round" stroke-linejoin="round"/>
<path opacity="0.1" d="M70.8701 143.585H222.919" stroke="white" stroke-width="1.024" stroke-linecap="round" stroke-linejoin="round"/>
<path opacity="0.1" d="M70.8701 147.794H222.919" stroke="white" stroke-width="1.024" stroke-linecap="round" stroke-linejoin="round"/>
<path opacity="0.1" d="M70.8701 152.008H222.919" stroke="white" stroke-width="1.024" stroke-linecap="round" stroke-linejoin="round"/>
<path opacity="0.1" d="M70.8701 156.216H222.919" stroke="white" stroke-width="1.024" stroke-linecap="round" stroke-linejoin="round"/>
<path opacity="0.1" d="M70.8701 160.425H222.919" stroke="white" stroke-width="1.024" stroke-linecap="round" stroke-linejoin="round"/>
<path opacity="0.1" d="M70.8701 164.639H222.919" stroke="white" stroke-width="1.024" stroke-linecap="round" stroke-linejoin="round"/>
<path opacity="0.1" d="M70.8701 168.847H222.919" stroke="white" stroke-width="1.024" stroke-linecap="round" stroke-linejoin="round"/>
<path opacity="0.1" d="M70.8701 173.056H222.919" stroke="white" stroke-width="1.024" stroke-linecap="round" stroke-linejoin="round"/>
<path opacity="0.1" d="M70.8701 177.27H222.919" stroke="white" stroke-width="1.024" stroke-linecap="round" stroke-linejoin="round"/>
<path d="M42.5317 180.562H34.478C30.2796 180.562 26.8799 186.645 26.8799 194.15C26.8799 201.656 30.2796 207.734 34.478 207.734H42.5317C46.7301 207.734 50.1298 201.651 50.1298 194.15C50.1298 186.65 46.7301 180.562 42.5317 180.562Z" fill="#263238"/>
<path opacity="0.05" d="M52.7761 180.562H44.7172C40.5188 180.562 37.1191 186.645 37.1191 194.15C37.1191 201.656 40.5188 207.734 44.7172 207.734H52.7761C56.9694 207.734 60.3742 201.651 60.3742 194.15C60.3742 186.65 56.9694 180.562 52.7761 180.562Z" fill="white"/>
<path d="M38.0516 154.025H34.2424C33.4948 154.051 32.8804 153.252 32.8651 152.238C32.8549 152.133 32.8549 152.026 32.8651 151.921L33.8891 140.416C34.0171 139.233 34.7492 138.368 35.6299 138.312H39.475C40.2174 138.312 40.8318 139.095 40.8472 140.109C40.8472 140.211 40.8472 140.314 40.8472 140.416L39.8232 151.921C39.6696 153.088 38.9118 153.994 38.0516 154.025Z" fill="#263238"/>
<path d="M41.8609 116.024L34.5137 155.648L114.503 186.982L113.945 108.892L96.353 108.38H48.1636C45.2657 108.354 42.7108 111.467 41.8609 116.024Z" fill="#00A651"/>
<path d="M101.376 122.399C98.3909 122.266 95.7132 124.713 94.8376 128.364L88.7858 153.718H77.1378L76.5029 187.167H114.816" fill="#00A651"/>
<path d="M43.0074 151.588C41.8349 151.588 40.8877 150.083 40.8877 148.229C40.8872 147.906 40.918 147.584 40.9799 147.267L45.3779 124.001C45.7466 122.071 46.873 120.75 48.1479 120.755H90.224C90.6797 120.755 91.0535 121.339 91.0535 122.066C91.0545 122.195 91.0425 122.323 91.0176 122.45C90.096 127.242 87.1008 143.119 85.9539 149.192C85.6877 150.615 84.8583 151.588 83.9059 151.588H43.0074Z" fill="#263238"/>
<path d="M81.7244 161.9C81.7236 162.307 81.6946 162.714 81.6374 163.118L81.4172 164.618L81.2892 165.504L80.3471 171.976L78.8111 182.497L78.3862 185.421H18.8457V182.497L18.8867 171.976L18.943 165.683V163.123C18.431 159.744 20.0643 156.467 22.5526 155.786C22.8445 155.707 23.146 155.667 23.4486 155.669H77.1369C79.6713 155.648 81.7244 158.454 81.7244 161.9Z" fill="#00A651"/>
<path d="M111.989 123.904V148.844C111.989 150.354 111.216 151.583 110.258 151.588H95.7071C94.7497 151.588 93.9766 150.359 93.9766 148.844C93.9763 148.597 93.9968 148.35 94.038 148.106L98.5231 122.609C98.7382 121.385 99.455 120.561 100.254 120.607L110.32 121.16C111.251 121.216 111.989 122.43 111.989 123.904Z" fill="#263238"/>
<path opacity="0.1" d="M67.553 120.755H59.5146L50.2832 151.588H58.3267L67.553 120.755Z" fill="white"/>
<path opacity="0.1" d="M73.8094 120.755H69.9694L60.7432 151.588H64.578L73.8094 120.755Z" fill="white"/>
<path d="M97.1515 171.976V182.497H18.8564L18.8974 171.976H97.1515Z" fill="black"/>
<path d="M86.2462 171.976H79.0065L65.9863 179.625V182.497H97.1518V171.976H86.2462Z" fill="white"/>
<path d="M32.3528 179.625V182.497H18.8564L18.8974 171.976H19.3377L32.3528 179.625Z" fill="white"/>
<path opacity="0.3" d="M114.539 187.167L113.945 108.892L103.193 108.38C100.51 108.247 97.4122 111.365 96.6289 114.98L88.8362 155.648H85.8001C82.3902 155.648 80.0554 158.131 80.0606 160.768L80.1066 187.177H114.539" fill="#263238"/>
<path d="M81.5251 164.987C81.524 165.084 81.5025 165.18 81.4619 165.268C81.4213 165.356 81.3626 165.435 81.2896 165.499C81.1644 165.615 80.9996 165.679 80.8288 165.678H18.9434V164.285H80.8442C80.962 164.286 81.0779 164.316 81.1808 164.373C81.2838 164.431 81.3706 164.513 81.433 164.613C81.4977 164.727 81.5296 164.856 81.5251 164.987Z" fill="white"/>
<path d="M29.8592 164.291V165.683H18.9229L18.928 164.291H29.8592Z" fill="#263238"/>
<path d="M81.5255 164.987C81.5244 165.084 81.5029 165.18 81.4623 165.268C81.4218 165.356 81.363 165.435 81.29 165.499C81.1648 165.615 81 165.679 80.8292 165.678H65.8174V164.285H80.8292C80.9471 164.286 81.0629 164.316 81.1659 164.373C81.2689 164.431 81.3556 164.513 81.418 164.613C81.4881 164.725 81.5254 164.855 81.5255 164.987Z" fill="#263238"/>
<path d="M225.653 184.32V184.596C225.653 185.275 225.384 185.927 224.904 186.407C224.424 186.887 223.772 187.156 223.093 187.156H19.727C19.048 187.156 18.3969 186.887 17.9168 186.407C17.4367 185.927 17.167 185.275 17.167 184.596V184.32C17.167 183.641 17.4367 182.99 17.9168 182.51C18.3969 182.03 19.048 181.76 19.727 181.76H223.093C223.772 181.76 224.424 182.03 224.904 182.51C225.384 182.99 225.653 183.641 225.653 184.32Z" fill="#263238"/>
<path d="M64.8241 183.864H34.5137V185.344H64.8241V183.864Z" fill="black"/>
<path d="M26.4494 184.602C26.4494 184.769 26.3999 184.932 26.3073 185.07C26.2147 185.209 26.0831 185.318 25.929 185.382C25.775 185.446 25.6054 185.463 25.4416 185.431C25.2779 185.398 25.1274 185.318 25.009 185.201C24.8907 185.083 24.8098 184.933 24.7766 184.77C24.7435 184.606 24.7595 184.436 24.8226 184.282C24.8858 184.127 24.9933 183.995 25.1315 183.902C25.2698 183.808 25.4326 183.758 25.5994 183.757C25.7108 183.756 25.8212 183.778 25.9243 183.82C26.0274 183.862 26.1211 183.924 26.2001 184.002C26.2791 184.081 26.3418 184.174 26.3846 184.277C26.4273 184.38 26.4494 184.49 26.4494 184.602Z" fill="white"/>
<path d="M72.0636 184.602C72.0636 184.769 72.0141 184.932 71.9212 185.071C71.8284 185.21 71.6965 185.318 71.5421 185.382C71.3877 185.446 71.2179 185.463 71.054 185.43C70.8901 185.398 70.7396 185.317 70.6215 185.199C70.5033 185.081 70.4229 184.93 70.3903 184.766C70.3577 184.603 70.3744 184.433 70.4383 184.278C70.5023 184.124 70.6105 183.992 70.7495 183.899C70.8884 183.806 71.0517 183.757 71.2188 183.757C71.3298 183.757 71.4396 183.779 71.5421 183.821C71.6446 183.864 71.7377 183.926 71.8162 184.004C71.8946 184.083 71.9569 184.176 71.9993 184.278C72.0418 184.381 72.0636 184.491 72.0636 184.602Z" fill="white"/>
<path d="M96.5575 192.988C96.5575 184.842 100.249 178.238 104.806 178.238H96.0557C91.504 178.238 87.8125 184.842 87.8125 192.988C87.8125 201.134 91.504 207.734 96.0557 207.734H104.806C100.249 207.749 96.5575 201.15 96.5575 192.988Z" fill="black"/>
<path opacity="0.7" d="M96.5575 192.988C96.5575 184.842 100.249 178.238 104.806 178.238H96.0557C91.504 178.238 87.8125 184.842 87.8125 192.988C87.8125 201.134 91.504 207.734 96.0557 207.734H104.806C100.249 207.749 96.5575 201.15 96.5575 192.988Z" fill="#263238"/>
<path d="M104.806 207.754C109.361 207.754 113.054 201.15 113.054 193.003C113.054 184.857 109.361 178.253 104.806 178.253C100.251 178.253 96.5576 184.857 96.5576 193.003C96.5576 201.15 100.251 207.754 104.806 207.754Z" fill="#263238"/>
<path d="M105.466 204.503C108.695 204.503 111.313 199.354 111.313 193.003C111.313 186.652 108.695 181.504 105.466 181.504C102.237 181.504 99.6191 186.652 99.6191 193.003C99.6191 199.354 102.237 204.503 105.466 204.503Z" fill="white"/>
<path d="M104.934 202.957C108.025 202.957 110.53 198.501 110.53 193.004C110.53 187.507 108.025 183.05 104.934 183.05C101.843 183.05 99.3379 187.507 99.3379 193.004C99.3379 198.501 101.843 202.957 104.934 202.957Z" fill="#263238"/>
<path d="M103.705 200.269C105.961 200.269 107.791 197.016 107.791 193.004C107.791 188.991 105.961 185.738 103.705 185.738C101.448 185.738 99.6191 188.991 99.6191 193.004C99.6191 197.016 101.448 200.269 103.705 200.269Z" fill="black"/>
<path opacity="0.5" d="M225.653 184.32V184.596C225.653 185.275 225.384 185.927 224.904 186.407C224.423 186.887 223.772 187.156 223.093 187.156H119.618V181.76H223.093C223.772 181.76 224.423 182.03 224.904 182.51C225.384 182.99 225.653 183.641 225.653 184.32Z" fill="black"/>
<path d="M193.494 192.988C193.494 184.842 197.186 178.238 201.737 178.238H192.992C188.436 178.238 184.744 184.842 184.744 192.988C184.744 201.134 188.436 207.734 192.992 207.734H201.727C197.186 207.749 193.494 201.15 193.494 192.988Z" fill="black"/>
<path opacity="0.7" d="M193.494 192.988C193.494 184.842 197.186 178.238 201.737 178.238H192.992C188.436 178.238 184.744 184.842 184.744 192.988C184.744 201.134 188.436 207.734 192.992 207.734H201.727C197.186 207.749 193.494 201.15 193.494 192.988Z" fill="#263238"/>
<path d="M201.738 207.754C206.293 207.754 209.986 201.15 209.986 193.003C209.986 184.857 206.293 178.253 201.738 178.253C197.182 178.253 193.489 184.857 193.489 193.003C193.489 201.15 197.182 207.754 201.738 207.754Z" fill="#263238"/>
<path d="M202.404 204.503C205.633 204.503 208.251 199.354 208.251 193.003C208.251 186.652 205.633 181.504 202.404 181.504C199.174 181.504 196.557 186.652 196.557 193.003C196.557 199.354 199.174 204.503 202.404 204.503Z" fill="white"/>
<path d="M201.866 202.957C204.956 202.957 207.462 198.501 207.462 193.004C207.462 187.507 204.956 183.05 201.866 183.05C198.775 183.05 196.27 187.507 196.27 193.004C196.27 198.501 198.775 202.957 201.866 202.957Z" fill="#263238"/>
<path d="M200.637 200.269C202.893 200.269 204.722 197.016 204.722 193.004C204.722 188.991 202.893 185.738 200.637 185.738C198.38 185.738 196.551 188.991 196.551 193.004C196.551 197.016 198.38 200.269 200.637 200.269Z" fill="black"/>
</g>
</svg>
