<svg width="72" height="72" viewBox="0 0 72 72" fill="none" xmlns="http://www.w3.org/2000/svg">
<rect width="72" height="72" rx="30" fill="#00A651"/>
<path d="M56.1706 39.563L55.2501 39.031C54.1546 38.3993 53.5001 37.2652 53.5001 36C53.5001 34.7348 54.1546 33.6007 55.2501 32.969L56.1706 32.437C58.6836 30.9845 59.5428 27.7785 58.0921 25.2655L56.3421 22.2345C54.8948 19.7267 51.6766 18.8657 49.1706 20.313L48.2501 20.8433C47.1546 21.4768 45.8438 21.4768 44.7501 20.8433C43.6546 20.2098 43.0001 19.0775 43.0001 17.8122V16.75C43.0001 13.8555 40.6446 11.5 37.7501 11.5H34.2501C31.3556 11.5 29.0001 13.8555 29.0001 16.75V17.814C29.0001 19.0792 28.3456 20.2115 27.2501 20.845C26.1546 21.4768 24.8456 21.4785 23.7501 20.845L22.8296 20.313C20.3236 18.8657 17.1053 19.7267 15.6563 22.2345L13.9063 25.2655C12.4556 27.7785 13.3148 30.9862 15.8278 32.437L16.7501 32.969C17.8456 33.6007 18.5001 34.7348 18.5001 36C18.5001 37.2652 17.8456 38.3993 16.7501 39.031L15.8296 39.563C13.3166 41.0137 12.4573 44.2215 13.9081 46.7345L15.6581 49.7655C17.1071 52.2732 20.3253 53.1343 22.8296 51.687L23.7501 51.1567C24.8456 50.5215 26.1546 50.525 27.2501 51.1567C28.3456 51.7902 29.0001 52.9225 29.0001 54.1877V55.25C29.0001 58.1445 31.3556 60.5 34.2501 60.5H37.7501C40.6446 60.5 43.0001 58.1445 43.0001 55.25V54.186C43.0001 52.9207 43.6546 51.7885 44.7501 51.155C45.8438 50.5233 47.1546 50.5215 48.2501 51.155L49.1706 51.687C51.6766 53.1325 54.8948 52.2715 56.3421 49.7655L58.0921 46.7345C59.5428 44.2215 58.6836 41.0137 56.1706 39.563ZM36.0001 44.75C31.1753 44.75 27.2501 40.8247 27.2501 36C27.2501 31.1753 31.1753 27.25 36.0001 27.25C40.8248 27.25 44.7501 31.1753 44.7501 36C44.7501 40.8247 40.8248 44.75 36.0001 44.75Z" fill="#FAFAFA"/>
</svg>
