<svg width="72" height="72" viewBox="0 0 72 72" fill="none" xmlns="http://www.w3.org/2000/svg">
<rect width="72" height="72" rx="30" fill="#00A651"/>
<g clip-path="url(#clip0_527_2187)">
<path d="M35.9999 38.7081C40.9653 38.7081 44.9905 34.6828 44.9905 29.7174C44.9905 24.752 40.9653 20.7268 35.9999 20.7268C31.0345 20.7268 27.0093 24.752 27.0093 29.7174C27.0093 34.6828 31.0345 38.7081 35.9999 38.7081Z" fill="#FAFAFA"/>
<path d="M57.1488 28.9216C57.444 28.5387 57.6595 28.1005 57.7823 27.6329C57.9052 27.1653 57.933 26.6778 57.864 26.1993C57.7951 25.7208 57.6308 25.261 57.381 24.8471C57.1311 24.4332 56.8007 24.0736 56.4094 23.7897L54.8782 22.6784C54.3733 22.3123 53.9717 21.8217 53.7126 21.2544C53.4535 20.687 53.3456 20.0623 53.3994 19.4409L53.5613 17.5553C53.6055 17.0721 53.552 16.585 53.404 16.123C53.2559 15.661 53.0163 15.2335 52.6995 14.866C52.3827 14.4986 51.9951 14.1987 51.5599 13.9842C51.1247 13.7698 50.6507 13.6452 50.1663 13.6178L48.2763 13.5128C47.6538 13.4774 47.0511 13.2815 46.5267 12.9441C46.0023 12.6068 45.5742 12.1396 45.2838 11.5878L44.4088 9.91218C44.1819 9.48484 43.8715 9.10741 43.496 8.80229C43.1204 8.49716 42.6875 8.27056 42.2227 8.13591C41.758 8.00126 41.2709 7.96131 40.7905 8.01843C40.31 8.07555 39.8459 8.22858 39.4257 8.46843L37.7807 9.40031C37.2376 9.70782 36.6241 9.86945 36 9.86945C35.376 9.86945 34.7625 9.70782 34.2194 9.40031L32.5744 8.46843C32.1533 8.22994 31.6886 8.07845 31.2079 8.02296C30.7271 7.96747 30.2401 8.0091 29.7758 8.14538C29.3114 8.28167 28.8792 8.50983 28.5047 8.81634C28.1302 9.12284 27.8211 9.50145 27.5957 9.92968L26.7207 11.6053C26.4303 12.1571 26.0021 12.6243 25.4778 12.9616C24.9534 13.299 24.3507 13.4949 23.7282 13.5303L21.8382 13.6353C21.3538 13.6627 20.8798 13.7873 20.4446 14.0017C20.0094 14.2162 19.6218 14.5161 19.305 14.8835C18.9882 15.251 18.7486 15.6785 18.6005 16.1405C18.4524 16.6025 18.3989 17.0896 18.4432 17.5728L18.605 19.4584C18.6589 20.0798 18.551 20.7045 18.2919 21.2719C18.0328 21.8392 17.6312 22.3298 17.1263 22.6959L15.595 23.8072C15.2037 24.0911 14.8734 24.4507 14.6235 24.8646C14.3737 25.2785 14.2094 25.7383 14.1404 26.2168C14.0715 26.6953 14.0993 27.1828 14.2221 27.6504C14.345 28.118 14.5604 28.5562 14.8557 28.9391L16.0107 30.4353C16.3919 30.9287 16.639 31.5123 16.7279 32.1295C16.8169 32.7466 16.7446 33.3762 16.5182 33.9572L15.8313 35.7072C15.6557 36.1576 15.5723 36.6386 15.5859 37.1218C15.5995 37.605 15.71 38.0805 15.9107 38.5203C16.1114 38.96 16.3983 39.3551 16.7544 39.682C17.1105 40.0089 17.5285 40.261 17.9838 40.4234L19.7644 41.0578C20.3523 41.2668 20.8761 41.6245 21.2847 42.096C21.6934 42.5675 21.973 43.1368 22.0963 43.7484L22.4375 45.4109L17.8919 60.1853L25.1019 57.9278L29.5907 64.0003L33.69 50.5997C34.3036 51.109 35.0684 51.401 35.8653 51.4303C36.6622 51.4595 37.4464 51.2244 38.0957 50.7616L42.4094 64.0003L46.8982 57.9278L54.1082 60.1853L49.4532 45.9053C49.4838 45.8047 49.51 45.7084 49.5319 45.6034L49.9038 43.7484C50.0271 43.1368 50.3067 42.5675 50.7154 42.096C51.124 41.6245 51.6478 41.2668 52.2357 41.0578L54.0163 40.4234C54.4716 40.261 54.8896 40.0089 55.2457 39.682C55.6018 39.3551 55.8887 38.96 56.0894 38.5203C56.2901 38.0805 56.4006 37.605 56.4142 37.1218C56.4278 36.6386 56.3444 36.1576 56.1688 35.7072L55.4819 33.9572C55.2555 33.3762 55.1832 32.7466 55.2722 32.1295C55.3611 31.5123 55.6082 30.9287 55.9894 30.4353L57.1488 28.9216ZM23.5094 29.7178C23.5094 27.2474 24.242 24.8325 25.6145 22.7784C26.987 20.7243 28.9377 19.1234 31.2201 18.178C33.5025 17.2326 36.0139 16.9852 38.4368 17.4672C40.8598 17.9491 43.0854 19.1388 44.8323 20.8856C46.5791 22.6324 47.7687 24.8581 48.2507 27.281C48.7326 29.704 48.4853 32.2154 47.5399 34.4978C46.5945 36.7801 44.9935 38.7309 42.9395 40.1034C40.8854 41.4759 38.4705 42.2084 36 42.2084C32.6884 42.205 29.5134 40.8879 27.1717 38.5462C24.83 36.2045 23.5129 33.0295 23.5094 29.7178Z" fill="#FAFAFA"/>
</g>
<defs>
<clipPath id="clip0_527_2187">
<rect width="56" height="56" fill="white" transform="translate(8 8)"/>
</clipPath>
</defs>
</svg>
