<svg width="72" height="72" viewBox="0 0 72 72" fill="none" xmlns="http://www.w3.org/2000/svg">
<rect width="72" height="72" rx="30" fill="#00A651"/>
<path d="M56.2962 31.0397L53.7836 26.9955C53.2365 26.1146 52.4735 25.388 51.5672 24.8843C50.6607 24.3806 49.6409 24.1166 48.6039 24.1172H44.4073C44.307 24.1175 44.2072 24.1035 44.1108 24.0755C43.9353 24.0243 43.7759 23.929 43.6478 23.7987C43.5195 23.6684 43.4269 23.5074 43.3785 23.3311C43.3598 23.263 43.3482 23.1933 43.344 23.1229L43.3125 22.8984L43.1947 22.1753L43.085 21.507C42.8512 20.0802 42.1177 18.7829 41.0156 17.847C39.9134 16.9112 38.5144 16.3977 37.0684 16.3984H18.8359C17.2198 16.3984 15.6698 17.0405 14.527 18.1833C13.3842 19.3261 12.7422 20.876 12.7422 22.4922V36.7211C12.7088 36.7141 12.6747 36.7107 12.6406 36.7109C12.5059 36.7109 12.3768 36.7645 12.2815 36.8596C12.1863 36.9549 12.1328 37.0841 12.1328 37.2188V44.6328C12.1328 44.7675 12.1863 44.8967 12.2815 44.9919C12.3768 45.0871 12.5059 45.1406 12.6406 45.1406C12.6793 45.1409 12.7178 45.1365 12.7554 45.1274C12.8552 46.6722 13.5393 48.1212 14.6686 49.18C15.7979 50.2387 17.2879 50.828 18.8359 50.8281H19.8678C19.9698 52.1006 20.5474 53.2879 21.4854 54.1537C22.4234 55.0195 23.6531 55.5003 24.9297 55.5003C26.2062 55.5003 27.4359 55.0195 28.374 54.1537C29.312 53.2879 29.8895 52.1006 29.9916 50.8281H42.2116C42.3132 52.0884 42.8814 53.2653 43.8048 54.1289C44.7283 54.9925 45.9407 55.4805 47.2049 55.4975C48.4691 55.5145 49.6942 55.0593 50.6406 54.2209C51.587 53.3825 52.1865 52.2213 52.3221 50.9642L57.646 51.0861C58.1824 51.0984 58.7019 50.898 59.0909 50.5286C59.48 50.1593 59.7073 49.651 59.723 49.1148L59.8672 44.2672C60.0012 39.603 58.7592 35.0027 56.2962 31.0397ZM53.745 37.5681L47.9641 37.3274C47.4871 37.3078 47.0323 37.1209 46.6794 36.7994C46.3266 36.478 46.0982 36.0425 46.0344 35.5694L45.1295 28.8439C45.0926 28.571 45.1146 28.2933 45.194 28.0297C45.2734 27.766 45.4083 27.5224 45.5896 27.3151C45.771 27.1079 45.9946 26.9418 46.2454 26.8282C46.4963 26.7145 46.7686 26.6559 47.0439 26.6563H47.7548C48.325 26.656 48.8891 26.7731 49.412 27.0003C49.935 27.2274 50.4056 27.5598 50.7946 27.9766L51.404 28.6296C53.3694 30.7375 54.6084 33.4194 54.9394 36.2823C54.9446 36.3268 54.9473 36.3716 54.9475 36.4164C54.9474 36.5719 54.9158 36.7259 54.8547 36.8689C54.7935 37.0119 54.7042 37.1411 54.5918 37.2486C54.4795 37.3562 54.3466 37.44 54.201 37.4949C54.0555 37.5497 53.9004 37.5747 53.745 37.5681Z" fill="#FAFAFA"/>
</svg>
